<svg id="Layer_1" data-name="Layer 1" xmlns="http://www.w3.org/2000/svg" viewBox="0 0 93.62 100.83"><defs><style>.cls-1{fill:#4c4c4c;}</style></defs><path class="cls-1" d="M46.81,18A28.84,28.84,0,0,0,18,46.81c0,6.88,4.74,14.77,8.71,20.19a10.72,10.72,0,0,1,2.1,6.38v9.44a18,18,0,0,0,18,18c.57,0,1.14,0,1.71-.08,9.12-.87,16.26-9,16.26-18.54V73.38A10.68,10.68,0,0,1,66.92,67c4-5.41,8.7-13.31,8.7-20.19A28.84,28.84,0,0,0,46.81,18Zm1.07,75.57A10.8,10.8,0,0,1,36,82.82v-7.2h21.6v6.59C57.61,88.07,53.34,93.06,47.88,93.58ZM61.11,62.73a17.87,17.87,0,0,0-2.76,5.69H35.27a18.05,18.05,0,0,0-2.75-5.69C27.87,56.4,25.2,50.6,25.2,46.81a21.61,21.61,0,0,1,43.22,0C68.42,50.61,65.76,56.41,61.11,62.73Z"/><path class="cls-1" d="M46.81,14.4a3.6,3.6,0,0,0,3.6-3.6V3.6a3.6,3.6,0,1,0-7.2,0v7.2A3.6,3.6,0,0,0,46.81,14.4Z"/><path class="cls-1" d="M25.69,17.43a3.57,3.57,0,0,0,3.12,1.8,3.68,3.68,0,0,0,1.8-.48,3.6,3.6,0,0,0,1.31-4.92l-3.6-6.24a3.6,3.6,0,1,0-6.24,3.6Z"/><path class="cls-1" d="M19.08,30a3.6,3.6,0,0,0-1.22-4.94L11.7,21.37A3.6,3.6,0,0,0,8,27.54l6.16,3.72A3.6,3.6,0,0,0,19.08,30Z"/><path class="cls-1" d="M10.84,42.82l-7.2-.07h0a3.6,3.6,0,0,0,0,7.2l7.2.07h0a3.6,3.6,0,0,0,0-7.2Z"/><path class="cls-1" d="M90,43.29H82.82a3.6,3.6,0,0,0,0,7.2l7.21,0h0a3.61,3.61,0,0,0,0-7.21Z"/><path class="cls-1" d="M85.83,21a3.59,3.59,0,0,0-5-1l-6,4a3.6,3.6,0,0,0,4,6l6-4A3.6,3.6,0,0,0,85.83,21Z"/><path class="cls-1" d="M63,18.75a3.61,3.61,0,0,0,4.92-1.32l3.6-6.24a3.6,3.6,0,1,0-6.24-3.6l-3.6,6.24A3.59,3.59,0,0,0,63,18.75Z"/></svg>