<svg id="Layer_1" data-name="Layer 1" xmlns="http://www.w3.org/2000/svg" viewBox="0 0 97.23 99.74"><defs><style>.cls-1{fill:#4c4c4c;}</style></defs><path class="cls-1" d="M21.61,56.52H3.6A3.6,3.6,0,0,0,0,60.12v36a3.61,3.61,0,0,0,3.6,3.61h18a3.61,3.61,0,0,0,3.6-3.61v-36A3.6,3.6,0,0,0,21.61,56.52Zm-3.6,36H7.2V63.72H18Z"/><path class="cls-1" d="M57.62,38.52h-18a3.6,3.6,0,0,0-3.6,3.6v54a3.61,3.61,0,0,0,3.6,3.61h18a3.61,3.61,0,0,0,3.6-3.61v-54A3.6,3.6,0,0,0,57.62,38.52Zm-3.6,54H43.21V45.72H54Z"/><path class="cls-1" d="M93.63,20.51h-18a3.6,3.6,0,0,0-3.6,3.6v72a3.61,3.61,0,0,0,3.6,3.61h18a3.61,3.61,0,0,0,3.6-3.61v-72A3.6,3.6,0,0,0,93.63,20.51Zm-3.6,72H79.22V27.71H90Z"/><path class="cls-1" d="M68,5.48a3.68,3.68,0,0,0-.51-1.1,1.3,1.3,0,0,0-.08-.17c0-.07-.12-.1-.17-.15a3.49,3.49,0,0,0-.87-.8,3.68,3.68,0,0,0-1.32-.48L47.26,0a3.6,3.6,0,1,0-1.1,7.12l9.21,1.42L9,42.59a3.6,3.6,0,0,0,4.26,5.81l46.38-34-1.42,9.19a3.61,3.61,0,0,0,3,4.11,3.48,3.48,0,0,0,.55,0,3.6,3.6,0,0,0,3.56-3.05L68.07,6.89A3.73,3.73,0,0,0,68,5.48Z"/></svg>