<svg id="Layer_1" data-name="Layer 1" xmlns="http://www.w3.org/2000/svg" viewBox="0 0 98.21 99"><defs><style>.cls-1{fill:#4c4c4c;}</style></defs><path class="cls-1" d="M51,80c-.46-4.08-2.65-6.38-6.76-6.87-.54-3.85-2.56-6.34-6.71-6.77a27,27,0,0,0-.82-2.73,6.5,6.5,0,0,0-10.09-2.56A34.43,34.43,0,0,0,24,63.61c-4.19,4.18-10.21,3.66-13.6-1.19A2.07,2.07,0,0,1,10,61.31c0-8.38,0-16.77,0-25.31.64,0,1.1-.12,1.56-.12q14.77,0,29.55,0a8.87,8.87,0,0,1,7.4,3.66c-2.82,2.67-5.71,5.31-8.5,8-3.63,3.59-3.81,8.37-.54,11.57s7.86,2.91,11.41-.58c2.07-2,4.12-4.1,6.19-6.14a3.73,3.73,0,0,1,.54-.36,7.56,7.56,0,0,1,.85.64q9.85,9.84,19.7,19.69c1.87,1.88,2,3.69.62,5.08s-3.24,1-5.08-.75a17.14,17.14,0,0,0-2.6-2.52,7.58,7.58,0,0,0-2.72-.44c.08.91-.13,2,.32,2.69a26.87,26.87,0,0,0,3,3.13c1.48,1.61,1.59,3.56.2,4.72-1.55,1.29-3.12,1.1-4.54-.3a29.07,29.07,0,0,0-3.3-3.18c-.6-.42-1.68-.16-2.54-.22.05.86-.22,1.93.2,2.52a36.68,36.68,0,0,0,3.17,3.32c1.49,1.61,1.57,3.52.14,4.7s-3.12,1-4.51-.37c-1.57-1.56-2.94-3-3.2-5.59C57,81.89,54.34,80.25,51,80Z"/><path class="cls-1" d="M88.19,35.88c0,8.66,0,17,0,25.41a2,2,0,0,1-.49,1.28c-2.78,2.56-5.76,4.77-9.87,3.77a5.65,5.65,0,0,1-2.33-1.52C70.2,59.6,64.93,54.38,59.75,49.07c-1.53-1.57-2.67-1.69-4.19,0-2.3,2.48-4.74,4.84-7.17,7.2-2.16,2.1-4.59,2.23-6.43.46s-1.8-4.38.39-6.6q6.56-6.63,13.2-13.15a3.67,3.67,0,0,1,2.28-1C67.83,35.85,77.83,35.88,88.19,35.88Z"/><path class="cls-1" d="M0,32.59H6.19V69.67H0Z"/><path class="cls-1" d="M92,32.6h6.19V69.67H92Z"/><path class="cls-1" d="M21.17,78.54c-.72-.59-1.91-1.11-2.26-2a3.54,3.54,0,0,1,.27-3.1A133.31,133.31,0,0,1,29,63.78c.69-.6,2.7-.38,3.68.19a2.44,2.44,0,0,1,.55,3.82c-3.24,3.47-6.67,6.75-10.07,10.06C22.75,78.2,22.08,78.23,21.17,78.54Z"/><path class="cls-1" d="M28.17,85.38c-.77-.53-2-.93-2.29-1.69-.39-1-.5-2.67.09-3.32a120.71,120.71,0,0,1,9.74-9.72c.71-.62,2.84-.36,3.85.25a2.47,2.47,0,0,1,.38,3.85c-3.14,3.34-6.44,6.55-9.73,9.75A7.15,7.15,0,0,1,28.17,85.38Z"/><path class="cls-1" d="M35,92.23c-.82-.63-2-1.11-2.38-2a3.53,3.53,0,0,1,.22-3.11,124.07,124.07,0,0,1,9.75-9.71c.7-.62,2.85-.35,3.83.29,1.43.93,1.47,2.71.22,4-3.07,3.2-6.22,6.31-9.4,9.41A8.75,8.75,0,0,1,35,92.23Z"/><path class="cls-1" d="M41.71,99c-.76-.56-2-1-2.24-1.77-.34-1-.39-2.65.21-3.32,3.09-3.38,6.35-6.61,9.7-9.74,1.2-1.13,2.76-.83,3.91.37a2.67,2.67,0,0,1,.21,3.92C50.4,91.73,47.18,94.89,44,98A7.74,7.74,0,0,1,41.71,99Z"/><path class="cls-1" d="M43.38,15.45h10.7c-.22,3.68-.79,7.14-2.81,10.17-1.42,2.12-3.19,2.23-4.27,0A101.75,101.75,0,0,1,43.38,15.45Z"/><path class="cls-1" d="M43.46,11.75C44.63,8.24,45.41,5,46.82,2c1.25-2.65,3.35-2.64,4.6,0,1.39,3,2.16,6.28,3.31,9.74Z"/><path class="cls-1" d="M51.71,95.47l4.34-4.12c1.36,1.38,3.69,2.39,3,5a3.58,3.58,0,0,1-2.15,2.2C54.28,99.28,53.26,96.93,51.71,95.47Z"/><path class="cls-1" d="M42.38,2,40.3,11.72H35.86A11.83,11.83,0,0,1,42.38,2Z"/><path class="cls-1" d="M57.92,11.77c-.73-3.41-1.4-6.51-2.06-9.55,3.4,1.22,6.28,5.39,6.44,9.55Z"/><path class="cls-1" d="M40.28,15.51l2.16,9.94a13.65,13.65,0,0,1-6.79-9.94Z"/><path class="cls-1" d="M55.76,25.48l2.17-10h4.58A13.46,13.46,0,0,1,55.76,25.48Z"/></svg>