<svg id="Layer_1" data-name="Layer 1" xmlns="http://www.w3.org/2000/svg" viewBox="0 0 100.83 100.83"><defs><style>.cls-1{fill:#4c4c4c;}</style></defs><path class="cls-1" d="M56.29,19a3.6,3.6,0,1,0-4.54,5.59c.52.43,1,.88,1.52,1.37a3.6,3.6,0,0,0,5.09-5.09A26.07,26.07,0,0,0,56.29,19Z"/><path class="cls-1" d="M43.78,13.42A26.52,26.52,0,0,0,20.86,58.36,3.6,3.6,0,0,0,26,53.27a19.32,19.32,0,0,1,16.7-32.74,3.6,3.6,0,0,0,1.13-7.11Z"/><path class="cls-1" d="M99.62,94.54,68.37,66.77a39.81,39.81,0,1,0-5.44,4.79L94.84,99.92a3.6,3.6,0,1,0,4.78-5.38ZM7.2,39.61A32.41,32.41,0,1,1,39.61,72,32.45,32.45,0,0,1,7.2,39.61Z"/></svg>