<svg id="Layer_1" data-name="Layer 1" xmlns="http://www.w3.org/2000/svg" viewBox="0 0 100.83 100.83"><defs><style>.cls-1{fill:#4c4c4c;}</style></defs><path class="cls-1" d="M81.73,36.3A3.59,3.59,0,0,0,79.83,41a37.78,37.78,0,1,1-20-20,3.6,3.6,0,0,0,2.82-6.63A45,45,0,1,0,86.45,38.2,3.59,3.59,0,0,0,81.73,36.3Z"/><path class="cls-1" d="M45,36a19.63,19.63,0,0,1,6.23,1,3.6,3.6,0,1,0,2.26-6.84A27,27,0,1,0,70.66,47.34a3.6,3.6,0,1,0-6.83,2.26A19.81,19.81,0,1,1,45,36Z"/><path class="cls-1" d="M97.23,14.4H86.43V3.6a3.61,3.61,0,0,0-7.21,0V16.51L42.47,53.27a3.59,3.59,0,0,0,0,5.09,3.59,3.59,0,0,0,5.09,0L84.32,21.61H97.23a3.61,3.61,0,0,0,0-7.21Z"/></svg>