<svg id="Layer_1" data-name="Layer 1" xmlns="http://www.w3.org/2000/svg" viewBox="0 0 44.62 49.95"><defs><style>.cls-1{fill:#f9f5ef;}</style></defs><path class="cls-1" d="M13.89,12c-.05,6.13.15,11.81,5,16.46-1.58.19-3.16.53-4.74.56-3.4.08-5.13-1.5-5.42-4.9A42.47,42.47,0,0,1,10.93,7,9,9,0,0,1,17,1a17.74,17.74,0,0,1,13.9.84,8.9,8.9,0,0,1,4.86,5.52,40.89,40.89,0,0,1,1.1,18.1c-.39,2.76-1,3.14-3.69,3.64a12.58,12.58,0,0,1-6.07-.69,3.3,3.3,0,0,1,.37-.44c3.19-2.81,4.38-6.51,4.71-10.6.09-1,.08-2.08.21-3.12s-.45-1.55-1.46-1.37c-1.73.31-3.46.64-5.17,1.05s-3.3,1-5,1.31a5.65,5.65,0,0,1-6.25-2.57C14.37,12.55,14.24,12.42,13.89,12Z"/><path class="cls-1" d="M11.24,31.41,10.7,38l2.17-.16L11,39.3,17,49.9H.26c-.05,0-.15-.11-.15-.17C0,45.2-.28,40.67,1.28,36.28A2.6,2.6,0,0,1,3,34.5C5.68,33.57,8.32,32.52,11.24,31.41Z"/><path class="cls-1" d="M28.82,49.88l6.06-10.55L33.29,38.2l.15-.23h1.67l-.47-6.39c.42.06.8.07,1.16.16,1.94.47,3.87,1,5.82,1.41A1.52,1.52,0,0,1,43,34.32a47,47,0,0,1,1.53,6.75c.27,2.89.06,5.82.06,8.81Z"/><path class="cls-1" d="M11.83,36.92V31.53C14,31,14.26,31.08,15,32.93A120.32,120.32,0,0,0,22.5,47.71c.18.3.36.61.69,1.15,2.07-4.21,4.07-8.24,6-12.29.56-1.15,1.05-2.34,1.57-3.51.81-1.84.81-1.84,3.1-1.63V36.9a9.56,9.56,0,0,0-1.47-.17,3.06,3.06,0,0,0-.93.3,3.05,3.05,0,0,0,.34.89c.48.59,1,1.12,1.65,1.77-1.73,3.23-3.48,6.55-5.28,9.84a1,1,0,0,1-.76.4c-3,0-6,0-9,0a1.38,1.38,0,0,1-1-.65c-1.63-3-3.24-6-4.79-9a1.49,1.49,0,0,1,.2-1.19c.24-.4.72-.64,1-1a4.47,4.47,0,0,0,.46-1,4.32,4.32,0,0,0-1.11-.35A7.89,7.89,0,0,0,11.83,36.92Z"/></svg>