<svg id="Layer_1" data-name="Layer 1" xmlns="http://www.w3.org/2000/svg" viewBox="0 0 57.07 47.05"><defs><style>.cls-1{fill:#fff;}</style></defs><path class="cls-1" d="M0,3.91H4.89V0h4.3V3.82h29V0h4.24V3.84h4.84V8.09H42.46c0,2.1,0,4.06,0,6a1,1,0,0,1-.78,1.18c-1.12.39-2.21.86-3.49,1.37V8.17H9.29V38.66H38.21c0-1.47-.05-2.89,0-4.31a1.48,1.48,0,0,1,.75-1c1-.45,2.17-.75,3.43-1.16v6.56h4.83V43H42.49v4H38.23v-4h-29v4H5V42.91H0V38.73H4.83V8.09H0Z"/><path class="cls-1" d="M57.07,16.91c-1.7,1.31-3.38,2.64-5.11,3.92-2.89,2.13-5.8,4.22-8.65,6.3l-3.24-5.87,4.84-2.21q4.64-2.1,9.27-4.18c1.44-.64,2-.45,2.89.88Z"/><path class="cls-1" d="M31.47,13.73v4.38H26.56c-.07.23-.16.38-.14.5.38,2-.55,3.43-2,4.73-1.14,1.07-2.14,2.29-3.45,3.71V18.14H16V13.73Z"/><path class="cls-1" d="M21,35c1.07-2.53,2.25-4.94,4.49-6.63a6.25,6.25,0,0,1,4.62-1.46,3.57,3.57,0,0,1,3.3,3.43c.07,2.21-1.34,4.33-3.37,4.64a27.26,27.26,0,0,1-4.24,0Z"/><path class="cls-1" d="M34.08,26.79,38.5,21.6A13.57,13.57,0,0,1,42,27.84l-6.41,1.64Z"/></svg>