<svg id="Layer_1" data-name="Layer 1" xmlns="http://www.w3.org/2000/svg" viewBox="0 0 85.43 102.73"><defs><style>.cls-1{fill:#4c4c4c;}</style></defs><path class="cls-1" d="M19.65,102.73c-1.16-1-2.4-1.81-3.47-2.86q-7.06-7-14.06-14c-2.85-2.87-2.82-5.09.07-8a27.46,27.46,0,0,1,3.75-3.65,7.42,7.42,0,0,1,4.25-1.5,4,4,0,0,0,3.2-1.11c2.38-2,4.86-3.92,7.13-6a17.14,17.14,0,0,1,17.35-4.24C43.43,62.93,49,63,54.56,62.87c3,0,5.74.51,7.89,3.06,3.4-3.08,6.69-6.11,10-9.08A8.54,8.54,0,0,1,83,55.9c2.77,1.83,3.24,4.82.92,7.17Q75,72.1,66,81c-3.7,3.6-8.66,3.89-13.39,4.37a130.29,130.29,0,0,1-14.12.49A11.54,11.54,0,0,0,29.13,90c2.19,3.24,1,5.82-1.69,8.07-1.86,1.54-3.67,3.13-5.51,4.69Zm7.29-15.12c3.25-3.63,7.45-5,12.49-5a136.3,136.3,0,0,0,17-1.07c2.45-.3,5.3-1.14,7.06-2.74,6.22-5.68,12.06-11.79,18-17.75,1.14-1.15.67-2-.56-2.7a5.18,5.18,0,0,0-6.32.78q-4.95,4.38-9.76,8.93a3.28,3.28,0,0,0-.83,2.13c-.09,3.56-1.6,5.18-5.14,5.19-6.08,0-12.16,0-18.24,0a45.72,45.72,0,0,1-5.24-.07c-.72-.09-1.34-.88-2-1.36a14.93,14.93,0,0,1,2-1.66c.4-.23,1,0,1.58,0,7.14,0,14.29,0,21.44,0,2.32,0,3.18-1.12,2.07-3.11a8.2,8.2,0,0,0-3.26-2.87,7,7,0,0,0-3.13-.34c-5.91,0-11.78.21-17.58-1.72A11.87,11.87,0,0,0,26,65.48c-4.14,2.88-7.91,6.3-11.92,9.56ZM20.85,99.68A6,6,0,0,0,22,99a54,54,0,0,0,4.61-4.72,2.6,2.6,0,0,0-.37-2.46C21.17,86.67,16,81.6,10.94,76.48c-1-1-1.89-1.1-2.91,0-1.31,1.37-2.66,2.72-4,4-1.08,1-.91,1.89.1,2.89,5.13,5.07,10.21,10.19,15.33,15.28A11.47,11.47,0,0,0,20.85,99.68Z"/><path class="cls-1" d="M53,0a24.39,24.39,0,0,1,.79,4c0,.44-1,1.28-1.49,1.28S50.79,4.43,50.81,4a24.31,24.31,0,0,1,.8-4Z"/><path class="cls-1" d="M52.17,59.67c-1.52,0-3.05.09-4.56,0a4.19,4.19,0,0,1-4.22-4.44c-.06-1.67-.08-3.34,0-5a4,4,0,0,1,.7-2.1c1.55-2,1.35-2.9-.86-4.56S38.72,40.36,37,38.3a19.3,19.3,0,0,1,3.77-27.81A19.5,19.5,0,1,1,62.87,42.64a13.22,13.22,0,0,0-2.43,1.67c-1,1.11-2.11,2.3-.12,3.69a3.26,3.26,0,0,1,.85,2.22,44.06,44.06,0,0,1,0,5A4.22,4.22,0,0,1,57,59.65C55.37,59.76,53.77,59.67,52.17,59.67ZM56,47c.25-3.63,2.54-5.42,5.23-7.11a16.11,16.11,0,0,0,6.86-18.09A16.36,16.36,0,1,0,43.39,39.9c2.78,1.73,5,3.65,5.32,7.12Zm-9.39,3.34a27.8,27.8,0,0,0,.08,4.52,2.32,2.32,0,0,0,1.56,1.57,71.83,71.83,0,0,0,8.17,0,2.14,2.14,0,0,0,1.54-1.36A35.48,35.48,0,0,0,58,50.36Z"/><path class="cls-1" d="M30.59,12l3.25,3.37c-.54.5-1.41,1.52-1.59,1.42A19.59,19.59,0,0,1,29,14.13,25.15,25.15,0,0,1,30.59,12Z"/><path class="cls-1" d="M76.64,14.39a35.77,35.77,0,0,1-4.38,2.41c-.28.1-1-1-1.52-1.51a25.42,25.42,0,0,1,3.43-2.47C74.49,12.66,75.35,13.54,76.64,14.39Z"/><path class="cls-1" d="M28,29.19c-1.09-1-2.3-1.62-2.37-2.33-.17-1.75,1.41-1.57,2.58-1.59s2.61,0,2.38,1.55C30.5,27.59,29.21,28.17,28,29.19Z"/><path class="cls-1" d="M76.27,29.19c-1.06-1-2.27-1.65-2.32-2.35-.12-1.73,1.43-1.57,2.62-1.57s2.62,0,2.36,1.57C78.8,27.61,77.48,28.17,76.27,29.19Z"/><path class="cls-1" d="M34.17,38.89a24.06,24.06,0,0,1-3.67,2c-.32.12-1.07-.92-1.63-1.43A25.69,25.69,0,0,1,32.27,37c.32-.18,1.19.63,1.8,1Z"/><path class="cls-1" d="M76.59,39.2c-1.21.93-2.08,1.9-2.36,1.75a26.06,26.06,0,0,1-3.49-2.48c.5-.53,1.19-1.6,1.46-1.51A36,36,0,0,1,76.59,39.2Z"/><path class="cls-1" d="M40.29,8.72a27.77,27.77,0,0,1-2-3.64c-.12-.31.76-1.46,1.21-1.48,2-.09,2.25,1.76,2.73,3.09.16.47-.6,1.25-1,1.89Z"/><path class="cls-1" d="M63.53,8.63C63.1,8,62.18,7.2,62.32,6.93a28.2,28.2,0,0,1,2.5-3.42c.53.5,1.6,1.19,1.5,1.47A26.55,26.55,0,0,1,64.43,8.7Z"/></svg>