<svg id="Layer_1" data-name="Layer 1" xmlns="http://www.w3.org/2000/svg" viewBox="0 0 90.03 95.43"><defs><style>.cls-1{fill:#4c4c4c;}</style></defs><path class="cls-1" d="M79.27,44.36a16.2,16.2,0,1,0-21.7,0,21.84,21.84,0,0,0-6.15,5.37,27.13,27.13,0,0,0-13.7-13.29,19.81,19.81,0,1,0-21.43,0A27,27,0,0,0,0,61.22V91.83a3.6,3.6,0,0,0,3.6,3.6H86.43a3.6,3.6,0,0,0,3.6-3.6V63A21.61,21.61,0,0,0,79.27,44.36Zm-19.85-12a9,9,0,1,1,9,9A9,9,0,0,1,59.42,32.41ZM27,7.2A12.61,12.61,0,1,1,14.4,19.81,12.62,12.62,0,0,1,27,7.2ZM7.2,61.22a19.81,19.81,0,1,1,39.61,0v27H7.2Zm75.62,27H54V63a14.4,14.4,0,1,1,28.8,0Z"/></svg>