<svg id="Layer_1" data-name="Layer 1" xmlns="http://www.w3.org/2000/svg" viewBox="0 0 89.74 95.64"><defs><style>.cls-1{fill:#4c4c4c;}</style></defs><path class="cls-1" d="M1.74,0H56.16c5.22,5.17,10.47,10.3,15.61,15.54a4.47,4.47,0,0,1,1,2.84c.1,4.6,0,9.2,0,13.8V44.83C84.35,48.8,89.71,55,89.74,64.27A19.39,19.39,0,0,1,86.2,75.62c-3.23,4.63-7.79,7.23-13.38,8.32,0,2.74-.09,5.35,0,8A3.86,3.86,0,0,1,71,95.64H1.74A5.36,5.36,0,0,1,0,91.15Q.08,47.82,0,4.48A5.33,5.33,0,0,1,1.74,0Zm4,5.6V90H67.19v-6.1c-7.38-1.56-12.64-5.54-15.33-12.52a2.27,2.27,0,0,0-2.6-1.72c-6.52.07-13,0-19.55,0-2.26,0-3.44-1.08-3.39-2.91s1.1-2.62,3.36-2.62c6.17,0,12.33,0,18.49,0h2.1l1.52-7.29H39.43c-3.33,0-6.66.05-10,0-2.56-.06-4.13-2.32-2.75-4.07A4.7,4.7,0,0,1,30,51.36c7.93-.12,15.87,0,23.8-.08.75,0,1.75,0,2.18-.44A21.79,21.79,0,0,1,67.2,45V20.46c-2.58,0-5,0-7.51,0-7.2.05-7.49.62-7.35-7.25,0-2.52,0-5,0-7.61ZM84.19,64.53a14.19,14.19,0,0,0-14-14.14A14.08,14.08,0,0,0,70,78.54,14.29,14.29,0,0,0,84.19,64.53ZM62.74,14.86,58,9.92v4.94Z"/><path class="cls-1" d="M43,38.47c4.39,0,8.77,0,13.16,0,2.36,0,3.55.94,3.58,2.69S58.61,44,56.3,44Q43,44,29.75,44c-2.48,0-3.74-1.24-3.4-3.23.31-1.83,1.65-2.29,3.29-2.29Z"/><path class="cls-1" d="M43.07,31.13c-4.46,0-8.92,0-13.38,0-2.28,0-3.33-.86-3.37-2.61s1.09-2.89,3.38-2.89q13.38,0,26.77,0c2.16,0,3.28,1.05,3.29,2.79s-1.13,2.69-3.3,2.71C52,31.15,47.53,31.13,43.07,31.13Z"/><path class="cls-1" d="M36.44,18.35c-2.33,0-4.67,0-7,0-2.06,0-3.09-1-3.11-2.68s1-2.8,3-2.82c4.81-.06,9.63-.05,14.45,0a2.76,2.76,0,0,1,3,2.72c.13,1.56-1.21,2.75-3.07,2.79C41.26,18.38,38.85,18.35,36.44,18.35Z"/><path class="cls-1" d="M35.75,76.89c2,0,4.1,0,6.15,0a2.56,2.56,0,0,1,2.87,2.69A2.53,2.53,0,0,1,42,82.41q-6.47.11-12.92,0a2.52,2.52,0,0,1-2.77-2.79,2.56,2.56,0,0,1,2.85-2.71C31.37,76.87,33.56,76.89,35.75,76.89Z"/><path class="cls-1" d="M15.91,38.44a19.63,19.63,0,0,1,2.31.12,2.47,2.47,0,0,1,2.28,2.58,2.4,2.4,0,0,1-2.13,2.7,22.39,22.39,0,0,1-4.41.1,2.48,2.48,0,0,1-2.58-2.73A2.54,2.54,0,0,1,14,38.51c.63,0,1.27,0,1.9,0Z"/><path class="cls-1" d="M15.83,18.34c-3.23,0-4.5-.79-4.47-2.78s1.27-2.75,4.57-2.75a17.13,17.13,0,0,1,1.9,0c1.66.24,2.76,1.09,2.66,2.92a2.54,2.54,0,0,1-2.75,2.58C17.1,18.37,16.47,18.34,15.83,18.34Z"/><path class="cls-1" d="M16.07,64.12c3.31,0,4.48.74,4.43,2.81s-1.28,2.74-4.59,2.74-4.52-.79-4.55-2.79S12.57,64.12,16.07,64.12Z"/><path class="cls-1" d="M15.92,76.91a18.54,18.54,0,0,1,2.11,0,2.51,2.51,0,0,1,2.46,2.44,2.44,2.44,0,0,1-2.11,2.93,18.24,18.24,0,0,1-4.84,0,2.22,2.22,0,0,1-2.07-2.87A5.61,5.61,0,0,1,13.84,77C14.33,76.64,15.21,76.91,15.92,76.91Z"/><path class="cls-1" d="M15.74,31.12c-3.15,0-4.34-.71-4.38-2.63s1.23-2.88,4.45-2.87a11.93,11.93,0,0,1,2.32.08,2.57,2.57,0,0,1,2.36,3,2.48,2.48,0,0,1-2.64,2.45C17.15,31.14,16.45,31.12,15.74,31.12Z"/><path class="cls-1" d="M15.9,51.36c.77,0,1.72-.28,2.28.06a5.25,5.25,0,0,1,2.23,2.35,2.12,2.12,0,0,1-1.82,2.81,20.35,20.35,0,0,1-5.23,0c-1.45-.18-2.08-1.37-2-2.8a2.46,2.46,0,0,1,2.41-2.46c.7-.07,1.41,0,2.11,0Z"/><path class="cls-1" d="M68.28,64.51c1.87-1.93,3.56-3.73,5.32-5.48,1.55-1.54,3.27-1.69,4.45-.46s1,2.84-.47,4.31Q74,66.53,70.37,70.07c-1.49,1.45-3,1.42-4.45,0-1.18-1.11-2.34-2.26-3.45-3.44-1.36-1.45-1.45-3-.25-4.12,1.4-1.34,2.8-1.06,4.13.15C66.92,63.19,67.46,63.73,68.28,64.51Z"/></svg>