<svg id="Layer_1" data-name="Layer 1" xmlns="http://www.w3.org/2000/svg" viewBox="0 0 48.32 39.35"><defs><style>.cls-1{fill:#fff;}</style></defs><path class="cls-1" d="M0,4.74A7.39,7.39,0,0,1,1.81,4.1,38.86,38.86,0,0,1,6,4.1c.32,0,.62.4.93.61C6.6,5,6.3,5.38,6,5.4c-1.46.07-2.93,0-4.53,0L1.38,6.91c.45,0,.83.06,1.21.07,3.25,0,6.51-.05,9.76,0a2.15,2.15,0,0,0,2.37-1.58H13.35c-1.18,0-2.36,0-3.54,0-.31,0-.59-.43-.89-.66.31-.22.61-.62.92-.63,1.64-.07,3.29-.07,4.94,0a3.18,3.18,0,0,0,2.31-.8A14.79,14.79,0,0,1,36,3.51a2.72,2.72,0,0,0,1.52.54c1.67.07,3.36,0,5,0s2,.17,2,1.93c0,7.37,0,14.74,0,22.11a2.4,2.4,0,0,0,.74,1.78c1.08,1.16,2.07,2.41,3.1,3.63v1.28c-1.47,2.46-3.3,2.77-5.18.55a6.78,6.78,0,0,0-6.22-2.56c-3.09.23-6.21.06-9.52.06a8.18,8.18,0,0,0,.54,1.86c.14.25.69.36,1.06.38A3.27,3.27,0,0,1,32.4,38c.1.88-.16,1.34-1.16,1.33q-9,0-17.93,0c-.9,0-1.21-.34-1.15-1.21a3.13,3.13,0,0,1,2.73-3c1.82-.29,1.82-.29,2.21-2.32H14.76c-.56,0-1.32.12-1.33-.68s.79-.75,1.38-.75q11.43,0,22.87,0h1.13l.12-.26-1.75-1.66c-.08-.07-.21-.18-.27-.15-1.65.71-2.23-.84-3.26-1.57a14.94,14.94,0,0,1-17.32-2,2.63,2.63,0,0,0-1.57-.63c-3-.06-6,0-9,0a2,2,0,0,1-.85,0,3.71,3.71,0,0,1-.8-.69c.27-.24.51-.64.81-.67a18.4,18.4,0,0,1,2.35,0h7c-.71-1.88-.77-1.92-2.58-1.92H5.22c-.51,0-1.15,0-1.07-.66,0-.27.68-.66,1.06-.67,2.39-.06,4.79,0,7.19,0-.12-1.85-.24-2-2-2s-3.37,0-5,0c-.9,0-1.32-.28-1.29-1.23q.06-2.31,0-4.62c0-.95.38-1.24,1.29-1.22,2.14,0,4.29,0,6.49,0l1-2.91H1.47V31.35c.36,0,.74,0,1.12,0,2.57,0,5.15,0,7.73,0,.37,0,.74.45,1.11.69-.37.24-.74.68-1.12.68-2.9.06-5.8.08-8.69,0C1.07,32.79.54,32.3,0,32Zm39.87,3.7c.36,1.23.69,2.39,1,3.55.16.56.23,1.18-.48,1.27-.25,0-.77-.56-.85-.94A13.4,13.4,0,0,0,23.23,1.76C16.83,3.19,12.12,9.82,13,16.19c.95,7.11,6.81,12.34,13.58,12.1a13.59,13.59,0,0,0,13.2-12.07c0-.35.47-.64.73-1,.2.35.63.76.56,1-.4,1.73-.87,3.45-1.43,5.13-.18.53-.31.86.17,1.29.75.68,1.68,1.33,1.09,2.61,0,.07.08.26.17.35.62.67,1.26,1.32,2.05,2.16V8.44Zm-2,19.83c2.29,2.27,4.49,4.46,6.7,6.64a1.24,1.24,0,0,0,1.9.12,1.26,1.26,0,0,0-.07-2c-1.23-1.24-2.48-2.47-3.7-3.72-1-1-1.89-2-2.82-3ZM11.56,12.8H5.61V17h6Zm2,25.09H31c-.39-.86-.89-1.36-1.74-1.36H15.34A1.69,1.69,0,0,0,13.61,37.89ZM18.09,35h8.37a7.58,7.58,0,0,1-.17-.89c-.08-1.08-.65-1.39-1.69-1.32-1.35.1-2.72,0-4.08,0C18.49,32.85,18.49,32.85,18.09,35Zm18-7,3.37-3.37-1-1.12.26.28-3.47,3.44ZM43.11,5.52H37.74c.65.62,1,1.33,1.54,1.4A28.62,28.62,0,0,0,43.11,7Z"/><path class="cls-1" d="M7.8,28.39c-.93,0-1.86.05-2.78,0-.33,0-.62-.41-.93-.63.29-.24.58-.66.88-.67,1.93-.06,3.85-.06,5.78,0,.29,0,.57.43.86.67-.31.22-.6.6-.92.63C9.73,28.44,8.76,28.39,7.8,28.39Z"/><path class="cls-1" d="M26.33,4.24A10.59,10.59,0,0,0,19.5,22.92l.24.21c.4.34,1,.66.45,1.28s-1,.07-1.38-.26A12,12,0,0,1,19.94,4.72a11.4,11.4,0,0,1,13.13.21,11.28,11.28,0,0,1,5.06,12c-.94,5.17-4.22,8.38-9.33,9.63a10.31,10.31,0,0,1-5.92-.3c-.38-.13-.93-.67-.88-.92.13-.75.78-.51,1.3-.37a10.6,10.6,0,1,0,3-20.75Z"/><path class="cls-1" d="M32.29,18.07a3.24,3.24,0,1,1,0-6.47,3.24,3.24,0,0,1,0,6.47Zm-.06-1.36a2,2,0,0,0,1.89-1.84,1.88,1.88,0,1,0-3.76,0A2,2,0,0,0,32.23,16.71Z"/><path class="cls-1" d="M18.94,13.52l1.68.71c1.16.49,1.7,1.35,1.47,2.29A2.1,2.1,0,0,1,19.7,18a5.18,5.18,0,0,1-1.92-.82c-.19-.12-.12-.66-.18-1a4.49,4.49,0,0,1,1,0c.5.11,1,.38,1.47.47.17,0,.47-.29.57-.51s-.22-.43-.41-.53c-.44-.22-.92-.37-1.38-.56a1.63,1.63,0,0,1-1.15-1.73,1.61,1.61,0,0,1,1.45-1.61,5.94,5.94,0,0,1,2.33.46c.2.07.23.64.34,1-.34.06-.72.25-1,.15C20.24,13.08,19.7,12.7,18.94,13.52Z"/><path class="cls-1" d="M25.32,16v.76a5.57,5.57,0,0,1,1.3,0c.27.08.48.41.72.62-.22.23-.41.64-.66.67a6.91,6.91,0,0,1-2.13,0,1.17,1.17,0,0,1-.67-.88,44.3,44.3,0,0,1,0-4.61c0-.32.54-.78.9-.88a4.41,4.41,0,0,1,1.81,0c.28,0,.49.46.74.7-.25.21-.46.52-.74.6a5.19,5.19,0,0,1-1.27,0l0,1c.67.44,1.84-.29,1.86.87C27.15,15.16,26.12,15.48,25.32,16Z"/></svg>