<svg id="Layer_1" data-name="Layer 1" xmlns="http://www.w3.org/2000/svg" viewBox="0 0 50.89 53.41"><defs><style>.cls-1{fill:#fff;}</style></defs><path class="cls-1" d="M39.31,25a5.47,5.47,0,0,1-2.64,5.46,1.45,1.45,0,0,0-.29,1.27c.63,2.06,1.37,4.08,2.06,6.13.62,1.87.28,2.66-1.45,3.51-.79.39-1.58.77-2.38,1.14-2,1-3.13.43-3.67-1.8-.82-3.46-1.62-6.93-2.44-10.4-.06-.25-.14-.49-.26-.89-.65.29-1.21.6-1.81.81a4.27,4.27,0,0,1-5.33-2c-1.32-2.53-2.59-5.1-3.77-7.71-1-2.29,0-4.53,2.35-5.83,3.54-2,7.11-3.87,10.49-6.08a28.78,28.78,0,0,0,8.14-8c.61-.91,1.23-.83,1.78.14a6.4,6.4,0,0,1,.39.84,4.74,4.74,0,0,0,3.44,3.19c5,1.42,8.14,9.63,5.36,13.58a1.49,1.49,0,0,0,0,1.17c.39.93.9,1.81,1.33,2.72.58,1.25.26,1.64-1.12,1.63a39.66,39.66,0,0,0-4.88.18C42.88,24.28,41.16,24.69,39.31,25Zm-10.1,2.06a47.61,47.61,0,0,1,19.5-5L39.08,2.49C34.77,8,29.26,11.74,23.24,14.88Zm-1.49.7c-2-4.07-3.95-8.08-5.91-12.06-2.57.65-4.16,2.3-2.53,5.22,1.14,2,2.06,4.18,3.11,6.26a2.67,2.67,0,0,0,3.86,1.32C26.72,28.31,27.18,28.06,27.72,27.79Zm5.33-.6a19.05,19.05,0,0,1-2.18.95c-.89.28-1.08.68-.83,1.64.89,3.44,1.64,6.92,2.47,10.38A11.83,11.83,0,0,0,33,41.47c1.23-.59,2.34-1,3.34-1.66a1.41,1.41,0,0,0,.54-1.21C35.69,34.85,34.39,31.13,33.05,27.19Zm15-10.12c1.94-4-2-10.7-5.29-10.8ZM37.59,25.6l-3,1,.88,2.45A3,3,0,0,0,37.59,25.6Z"/><path class="cls-1" d="M9.46,48.89H3.22c-2.09,0-3.2-1.07-3.2-3.16Q0,31.89,0,18.06c0-2.2,1.17-3.33,3.36-3.34,2.91,0,5.82,0,8.73,0,.68,0,1.61-.21,1.59.86s-1,.76-1.63.76c-2.78,0-5.56,0-8.34,0-1.68,0-2,.34-2,2q0,13.56,0,27.13c0,1.43.38,1.8,1.8,1.8,2,0,4.06.06,6.08,0,1.23,0,1.73.34,1.55,1.58a13.83,13.83,0,0,0,0,1.87c1.1-1,2-1.87,3-2.6a3.9,3.9,0,0,1,2.08-.79c8.29-.06,16.59,0,24.88,0,1.85,0,2.07-.22,2.08-2v-16c0-.35-.11-.76,0-1s.59-.52.89-.77c.23.27.62.53.65.82.08.92,0,1.85,0,2.78V45.57c0,2.31-1,3.31-3.29,3.31-8.2,0-16.4,0-24.61,0a3.72,3.72,0,0,0-2.09.79c-1.25,1-2.35,2.13-3.57,3.13a5.31,5.31,0,0,1-1.47.58A6.31,6.31,0,0,1,9.31,52C9.29,51,9.4,50.06,9.46,48.89Z"/><path class="cls-1" d="M16.21,41.9c3.25,0,6.51,0,9.77,0,.44,0,.87.47,1.3.73-.45.29-.89.84-1.35.84q-9.7.09-19.41,0c-.43,0-.87-.59-1.3-.9.45-.24.89-.67,1.35-.68C9.78,41.87,13,41.9,16.21,41.9Z"/><path class="cls-1" d="M15.15,38.18H7a3,3,0,0,1-1.17-.11,1,1,0,0,1-.53-.75c0-.25.36-.54.62-.69a1.83,1.83,0,0,1,.78,0h16.1a1.81,1.81,0,0,1,.66,0c.48.22,1.29.45,1.34.77.12.9-.69.79-1.3.79l-3.7,0Z"/><path class="cls-1" d="M12.09,32.84c-1.89,0-3.79,0-5.67,0-.41,0-.8-.46-1.2-.71.4-.3.8-.86,1.21-.86q5.61-.1,11.21,0c.4,0,.78.57,1.17.88-.39.25-.78.69-1.18.71-1.85.07-3.7,0-5.54,0Z"/><path class="cls-1" d="M10.91,25.88c1.46,0,2.91-.06,4.36,0,.38,0,.74.52,1.11.8-.38.26-.75.74-1.14.75q-4.41.11-8.84,0c-.4,0-.79-.46-1.18-.71.4-.3.79-.82,1.21-.85C7.92,25.81,9.42,25.88,10.91,25.88Z"/><path class="cls-1" d="M9.55,22.18c-1.1,0-2.2.06-3.29,0-.37,0-.7-.46-1-.7.36-.3.71-.84,1.08-.85,2.24-.08,4.48-.07,6.72,0,.33,0,.64.52,1,.8-.33.26-.64.71-1,.74C11.84,22.24,10.7,22.18,9.55,22.18Z"/></svg>