<svg id="Layer_1" data-name="Layer 1" xmlns="http://www.w3.org/2000/svg" viewBox="0 0 46.09 46.2"><defs><style>.cls-1{fill:#fff;}</style></defs><path class="cls-1" d="M32.92,18.23c0,.65,0,1,0,1.38a7.73,7.73,0,0,0,1.91,5.52,2.55,2.55,0,0,1,.57,1.49c0,6,0,12,0,18,0,1.56,0,1.57-1.57,1.57q-16.14,0-32.28,0C0,46.19,0,46.18,0,44.7V12.54c0-1.48,0-1.49,1.52-1.5,7.63,0,15.25,0,22.88,0,1.37,0,1.74,1.14,2.66,1.76a3.53,3.53,0,0,1-3.22,1.85c-4.57-.12-9.14,0-13.71,0H8.82V26.67H26.76c0-.09.13-.16.12-.21-.41-2.17.59-3.62,2.33-4.76A13.89,13.89,0,0,0,31,20.09ZM8.79,42.6H26.85v-12H8.79ZM3,18.22H5.87V15.44H3Zm0,7.9H5.88V23.35H3Zm26.76-2.81V26.1h2.76V23.31ZM3,33.9H5.91V31.12H3Zm26.71-2.8v2.81H32.5V31.1ZM3,39v2.8H5.91V39Zm29.49,2.9V39H29.76v2.9Z"/><path class="cls-1" d="M18.86,2.08a5.22,5.22,0,0,1,4.05,0,19.66,19.66,0,0,1,3.95,2.36C28.66,6,30.29,7.67,32,9.27l1.14,1a25.6,25.6,0,0,0,1.7-2.05A1.53,1.53,0,0,0,35,7.15,5.76,5.76,0,0,1,38.89.2a5.61,5.61,0,0,1,7,4.1,5.24,5.24,0,0,1-1.56,5.38,5.17,5.17,0,0,1-5.64,1.26,1.69,1.69,0,0,0-2.29.56,12.36,12.36,0,0,1-1.53,1.39,27.11,27.11,0,0,0,2.27,2c.24.18.81.07,1.18-.07a5.63,5.63,0,1,1,0,10.42A5.59,5.59,0,0,1,34.94,19a2,2,0,0,0-.73-2.22,11.57,11.57,0,0,1-1.1-1.34C31,17.43,29,19.34,27,21.14A9.48,9.48,0,0,1,20.53,24a16.49,16.49,0,0,1-1.81-.28L30,12.86ZM37.63,5.62a2.81,2.81,0,0,0,2.75,2.84,2.86,2.86,0,0,0,2.9-2.83,3,3,0,0,0-2.9-2.86A2.83,2.83,0,0,0,37.63,5.62Zm0,14.45a2.75,2.75,0,0,0,2.75,2.82,2.81,2.81,0,0,0,2.9-2.81,3,3,0,0,0-2.9-2.85A2.83,2.83,0,0,0,37.63,20.07Zm-3.77-7.28c-.57-.38-.89-.77-1.17-.74a1,1,0,0,0-.77.72c0,.25.43.77.68.77S33.27,13.17,33.86,12.79Z"/></svg>