<svg id="Layer_1" data-name="Layer 1" xmlns="http://www.w3.org/2000/svg" viewBox="0 0 47.42 41.87"><defs><style>.cls-1{fill:#fff;}</style></defs><path class="cls-1" d="M0,23.81c.27-1.25.45-2.53.82-3.75A16.64,16.64,0,0,1,19.24,8.56a8.66,8.66,0,0,1,.85.21l-.25,1.29L17.39,9.8v8.91h3.17v1.43H17.39V30c2.29,0,4.53,0,6.77,0,.21,0,.53-.34.59-.58A14,14,0,0,0,25,27.64H26.4L26.16,30h6.31A16,16,0,0,1,28.25,37a15.85,15.85,0,0,1-10,4.67,5.31,5.31,0,0,0-.77.17H15.68a3,3,0,0,0-.57-.16A16.13,16.13,0,0,1,1.32,31.43a33.6,33.6,0,0,1-1.32-5ZM15.84,30V20.24H8.6a25.48,25.48,0,0,0,0,9.73Zm-8.92-9.8c-1.34,0-2.81,0-4.29,0-.18,0-.46.34-.53.57a14.77,14.77,0,0,0,0,8.66c.07.23.34.56.52.56,1.48.05,3,0,4.3,0ZM17.37,40.23c2.92-.22,7-5.56,6.75-8.73H17.37Zm-8.5-8.74c1.3,3.87,2.63,7.49,7,8.92V31.49ZM9,18.64h6.85V10C13,10.11,9.9,14.08,9,18.64ZM22.11,39.25a14.66,14.66,0,0,0,8.31-7.78H25.83A19.75,19.75,0,0,1,22.11,39.25Zm-11,0a18.93,18.93,0,0,1-3.48-7c-.09-.32-.4-.8-.63-.81-1.33-.08-2.67,0-4.19,0A14.9,14.9,0,0,0,11.13,39.25Zm0-28.32a15,15,0,0,0-8.28,7.8c1.51,0,2.82,0,4.13,0a.76.76,0,0,0,.55-.39A19.59,19.59,0,0,1,11.12,10.93Z"/><path class="cls-1" d="M47.42,17.26c-1,.1-2,.15-3.05.32a1.55,1.55,0,0,0-.82.65,2.62,2.62,0,0,0,.61,4,4.29,4.29,0,0,1,.6.75l-3.7,3.57c-.65-.55-1.38-1.22-2.17-1.8a2,2,0,0,0-1-.16c-.18,0-.35.2-.54.22-1.61.22-1.93,1.27-1.83,2.67a7.92,7.92,0,0,1-.14,1.41H30.28c-.1-1-.18-2.07-.33-3.11a1,1,0,0,0-.49-.69c-.7-.36-1.45-.64-2.25-1l-2.52,2.13L21,22.68c.65-.78,1.32-1.51,1.9-2.31a1.59,1.59,0,0,0,.15-1c-.26-2.11-1.68-2.58-3.52-2.47a5.24,5.24,0,0,1-.73-.07V11.68c.92-.07,1.81-.16,2.69-.21.61,0,1-.2,1.2-.9a12.6,12.6,0,0,1,.86-2L21.36,6l3.71-3.59c.6.51,1.32,1.08,2,1.71a1.19,1.19,0,0,0,1.3.25c1.68-.42,2.51-1.31,2.26-3.1A5.68,5.68,0,0,1,30.76,0h5.15c.1,1.88-.39,4,2.34,4.62.46.1.74.22,1.12-.13.69-.64,1.44-1.24,2-1.72l3.71,3.59c-.61.74-1.25,1.49-1.87,2.25-.37.46.4,3.1.94,3.27a1.5,1.5,0,0,0,.2,0l3.06.2Zm-1.57-3.8-3-.29L41.18,8.83l2-2.39-1.7-1.86-2.37,2a35.22,35.22,0,0,0-3.46-1.48,1.1,1.1,0,0,1-.9-1.17c0-.81-.12-1.62-.19-2.49-.66,0-1.19,0-1.71,0s-.87.22-.88.85c0,.82-.13,1.63-.19,2.3l-4.32,1.7L25.1,4.34,23.21,6c.61.73,1.19,1.37,1.69,2.06a1,1,0,0,1,.18.84c-.55,1.25-1.16,2.48-1.78,3.78L20.22,13v2.54a21.86,21.86,0,0,1,2.51.23,1.37,1.37,0,0,1,.83.72,27,27,0,0,1,1.16,3,1.26,1.26,0,0,1-.1,1c-.52.74-1.14,1.41-1.68,2.06l1.71,1.85c.71-.61,1.34-1.2,2-1.7a1.28,1.28,0,0,1,1-.06c1,.4,1.95.94,3,1.3.5.17.68.36.7.87,0,.88.15,1.76.23,2.65h2.47l.3-3.09,4.32-1.69,2.6,2.17a5.84,5.84,0,0,1,.76-1,7.13,7.13,0,0,1,1.11-.64c-.85-1-1.36-1.65-1.92-2.25a.78.78,0,0,1-.1-1.11,11.55,11.55,0,0,0,1.15-2.5,1.35,1.35,0,0,1,1.45-1.18C46.15,16,46.15,16,46,13.69,46,13.66,45.94,13.63,45.85,13.46Z"/><path class="cls-1" d="M26.74,14.46a6.26,6.26,0,0,1,6.32-6.35A6.38,6.38,0,1,1,33,20.86,6.27,6.27,0,0,1,26.74,14.46Zm1.41,0a4.92,4.92,0,1,0,9.84,0,5,5,0,0,0-4.92-5A4.9,4.9,0,0,0,28.15,14.51Z"/></svg>